<svg viewBox="0 0 20 20" xmlns="http://www.w3.org/2000/svg">
  <path fill="currentColor" d="M3.19 19.76c.03-.13.07-.25.1-.27.01-.03.51-.17 1.1-.32a8.4 8.4 0 0 0 2.62-.98 6.54 6.54 0 0 0 2.05-2.5c.5-1.05.7-1.92.75-3.2l.04-.85-.25.43c-1.03 1.76-2.1 2.71-3.65 3.23-.78.26-1.98.29-2.76.06a4.65 4.65 0 0 1-3.1-3.3 6.48 6.48 0 0 1 0-2.13A4.31 4.31 0 0 1 1.64 7.4c1.3-1.05 2.55-1.12 4.46-.25.22.1.4.17.4.15l-.27-.53c-.6-1.04-.74-1.51-.74-2.4 0-.96.2-1.66.7-2.4A4.3 4.3 0 0 1 8.91.09a6.28 6.28 0 0 1 2.07 0 4.43 4.43 0 0 1 3.05 2.38c.44.88.55 2 .27 2.94A6.47 6.47 0 0 1 13.58 7c-.1.16-.19.3-.18.31.02.01.35-.13.74-.31.93-.43 1.28-.52 2-.48 1.12.07 1.89.43 2.66 1.27a4.5 4.5 0 0 1 1.2 3.19 4.57 4.57 0 0 1-2.72 4.2c-.65.27-1.05.34-1.83.3a4.24 4.24 0 0 1-1.98-.48 6.24 6.24 0 0 1-3.01-2.86l-.29-.44v.33c0 .48.15 1.63.3 2.31.15.64.39 1.3.66 1.77a6.6 6.6 0 0 0 2.32 2.32c.42.24 1.43.58 2.36.79 1.03.24 1 .22 1.06.52l.06.26H3.13z"/>
</svg>
