<svg viewBox="0 0 20 20" xmlns="http://www.w3.org/2000/svg">
  <path fill="currentColor" d="M9.84 19.38c-.23-.77-.68-1.85-1.1-2.67-.61-1.15-1.78-2.84-4.15-6-1.77-2.36-2-2.7-2.52-3.66a7.94 7.94 0 0 1-.67-1.81 6.42 6.42 0 0 1 0-2.08A4.14 4.14 0 0 1 3.83.29a4.5 4.5 0 0 1 3.29.06 5.2 5.2 0 0 1 2.74 3.22l.16.42.2-.53A5.08 5.08 0 0 1 12.3.64C13 .2 13.68 0 14.55 0a4 4 0 0 1 2.98 1.21 3.7 3.7 0 0 1 1.15 2.78c0 1.52-.52 2.97-1.7 4.75-.56.85-.77 1.13-2.49 3.36-2.42 3.14-3.54 5.04-4.25 7.22l-.22.68z"/>
</svg>
