<?xml version="1.0" encoding="UTF-8" standalone="no"?>
<!-- Created with Inkscape (http://www.inkscape.org/) -->

<svg
   width="100"
   height="100"
   viewBox="0 0 100 100"
   version="1.1"
   id="svg5"
   inkscape:version="1.1.1 (3bf5ae0d25, 2021-09-20)"
   sodipodi:docname="polar-bear-a.svg"
   xmlns:inkscape="http://www.inkscape.org/namespaces/inkscape"
   xmlns:sodipodi="http://sodipodi.sourceforge.net/DTD/sodipodi-0.dtd"
   xmlns="http://www.w3.org/2000/svg"
   xmlns:svg="http://www.w3.org/2000/svg">
  <sodipodi:namedview
     id="namedview7"
     pagecolor="#ffffff"
     bordercolor="#666666"
     borderopacity="1.0"
     inkscape:pageshadow="2"
     inkscape:pageopacity="0.0"
     inkscape:pagecheckerboard="0"
     inkscape:document-units="px"
     showgrid="true"
     units="px"
     inkscape:zoom="6.2217172"
     inkscape:cx="104.95495"
     inkscape:cy="56.736748"
     inkscape:window-width="2560"
     inkscape:window-height="1334"
     inkscape:window-x="-11"
     inkscape:window-y="-11"
     inkscape:window-maximized="1"
     inkscape:current-layer="layer1">
    <inkscape:grid
       type="xygrid"
       id="grid824" />
  </sodipodi:namedview>
  <defs
     id="defs2">
    <pattern
       id="EMFhbasepattern"
       patternUnits="userSpaceOnUse"
       width="6"
       height="6"
       x="0"
       y="0" />
  </defs>
  <g
     inkscape:label="Layer 1"
     inkscape:groupmode="layer"
     id="layer1">
    <path
       style="fill:#ffffff;fill-opacity:0.990625;stroke:#000000;stroke-width:1px;stroke-linecap:butt;stroke-linejoin:miter;stroke-opacity:1"
       d="M 21,42 C 26,23 55,13 74,17 93,21 93.048562,31.630067 92.901453,35.750548 92,61 89.101219,69.872157 74,79 64.572711,84.698269 53.677954,89.779647 42,85 30.322046,80.220353 21.599908,70.304018 19,65 16.280541,59.452089 -11.379817,50.419497 21,42 Z"
       id="path1338"
       sodipodi:nodetypes="csssssc" />
    <path
       style="fill:none;stroke:#000000;stroke-width:1px;stroke-linecap:butt;stroke-linejoin:miter;stroke-opacity:1"
       d="m 9,49 c 5.808849,-0.184929 10.922899,0.243382 10,6"
       id="path4619"
       sodipodi:nodetypes="cc" />
    <path
       style="fill:none;stroke:#000000;stroke-width:1px;stroke-linecap:butt;stroke-linejoin:miter;stroke-opacity:1"
       d="m 37,58 c -0.471879,4.025666 -0.229922,7.877626 1,15 1.025502,3.425858 3.775043,10.591681 11,13 9,3 15.434561,-4.075751 18,-8 2,-4 3.620174,-8.899132 3,-12 -1,-5 -4.057629,-10.866211 -7,-16"
       id="path4711"
       sodipodi:nodetypes="ccscsc" />
    <path
       style="fill:none;stroke:#000000;stroke-width:1px;stroke-linecap:butt;stroke-linejoin:miter;stroke-opacity:1"
       d="M 27,53 C 31,39 42,46 42,46"
       id="path6356"
       sodipodi:nodetypes="cc" />
    <path
       style="fill:none;stroke:#000000;stroke-width:1px;stroke-linecap:butt;stroke-linejoin:miter;stroke-opacity:1"
       d="M 71,38 C 57,32 54,44 54,44"
       id="path6358" />
    <path
       style="fill:#000000;fill-opacity:1;stroke:#000000;stroke-width:1px;stroke-linecap:butt;stroke-linejoin:miter;stroke-opacity:1"
       d="m 62,45 c 0,-4 4,-4 6,-2 -1,3 -5,4 -6,2 z"
       id="path6360"
       sodipodi:nodetypes="ccc" />
    <path
       style="fill:#000000;fill-opacity:1;stroke:#000000;stroke-width:1px;stroke-linecap:butt;stroke-linejoin:miter;stroke-opacity:1"
       d="m 36,53 c -3,-4 -5,0 -5,0 1,3 4,3 5,0 z"
       id="path6362"
       sodipodi:nodetypes="ccc" />
    <path
       style="fill:#000000;fill-opacity:1;stroke:#000000;stroke-width:1px;stroke-linecap:butt;stroke-linejoin:miter;stroke-opacity:1"
       d="m 46,81 c -6,-7 -3,-10 -3,-10 0,0 5.418861,-1.581139 7,0 2,-2 8,-3 11,-1 1,0 0.584323,7.9622 -3,10 -2.096347,1.191839 -9,2 -12,1 z"
       id="path7627"
       sodipodi:nodetypes="ccccsc" />
    <path
       style="fill:#ffffff;fill-opacity:1;stroke:#000000;stroke-width:1px;stroke-linecap:butt;stroke-linejoin:miter;stroke-opacity:1"
       d="M 74,19 C 98.587751,4.2102708 93.396089,16.606171 90,28"
       id="path9162"
       sodipodi:nodetypes="cc" />
    <path
       style="fill:none;stroke:#000000;stroke-width:1px;stroke-linecap:butt;stroke-linejoin:miter;stroke-opacity:1"
       d="m 82,24 c 3.317643,-6.262734 5.692973,-7.802537 8,-9"
       id="path9779"
       sodipodi:nodetypes="cc" />
    <path
       style="fill:#000000;fill-opacity:1;stroke:#000000;stroke-width:1px;stroke-linecap:butt;stroke-linejoin:miter;stroke-opacity:1"
       d="m 62,80 c -4,3 -5,4 -13,3 5,0 9.127518,-1.054202 13,-3 z"
       id="path10499"
       sodipodi:nodetypes="ccc" />
  </g>
</svg>
