<svg viewBox="0 0 20 20" xmlns="http://www.w3.org/2000/svg">
  <path fill="currentColor" d="M3.6 19.72c.04-.16.09-.3.12-.3.04-.01.39-.05.79-.08a5.54 5.54 0 0 0 3.67-1.59c1.13-1.14 1.6-2.46 1.72-4.76l.03-.64-.2.39a5.06 5.06 0 0 1-2.27 2.33 3.79 3.79 0 0 1-3.59-.06 3.87 3.87 0 0 1-1.63-2.05c-.1-.32-.12-.51-.12-1.11 0-.86.08-1.23.44-1.95.49-.99 1.24-1.84 2.7-3.05 1.89-1.57 3.35-3.26 4-4.63.2-.4.52-1.34.68-1.97L10 0l.24.72c.39 1.23.8 2.05 1.55 3.03.4.54 1.26 1.42 3.46 3.57 1.28 1.24 1.83 1.9 2.14 2.55.41.86.53 1.38.48 2.2a3.47 3.47 0 0 1-1.17 2.5c-1.34 1.23-3.28 1.22-4.82 0a5.02 5.02 0 0 1-1.25-1.44 27.3 27.3 0 0 0-.37-.58 7.36 7.36 0 0 0 .09 1.92c.33 2.02 1.24 3.38 2.78 4.15.68.35 1.85.65 2.82.74.4.04.4.03.47.43l.03.21H3.55z"/>
</svg>
